<?xml version="1.0" encoding="UTF-8"?>
<svg id="Capa_1" data-name="Capa 1" xmlns="http://www.w3.org/2000/svg" viewBox="0 0 700.5 336.49">
  <defs>
    <style>
      .cls-1 {
        fill: #e8eadd;
      }

      .cls-2 {
        fill: none;
        stroke: #e8eadd;
        stroke-miterlimit: 10;
        stroke-width: 2px;
      }
    </style>
  </defs>
  <path class="cls-1" d="M154.05,252c-2.1,25.5-33.54,29.17-53.25,21.56-41.79-16.13-65.46-72.92-63.01-115.22C44.64,40.48,190.17-13.83,268.61,77.29c1.59,1.85,10.26,12.04,8.61,13.8-2.51.14-4.67-1.81-6.38-3.39-14.22-13.19-19.99-23.57-38.48-33.98C136.47-.24,27.08,86.45,49.86,192.25c4.93,22.91,28.68,64.78,54.24,67.66s6.76-19.91,3.58-31.15c-.94-3.32-1.31-6.74-1.98-10.09-2.39-11.89-3.88-24.03-3.44-36.19.16-4.48,2.88-18.43,2.09-21.55-.12-.46-3.3-8.22-3.56-8.62-5.73-8.93-7.89-11.44-12.01-21.88-.54-1.38-3.76-1.67-2.67-4.85-6.4-1-14.89,23.17-13.8,24.13,6.75-.06,14.76-1.14,18.41,5.74-5.23-1.68-5.95-3.61-12.04-3.44-6.61.19-6.95.67-8.68,5.75-4.02.14-3.18.71-3.46-2.82-1.35-17.26,3.73-30.71,11.26-45.13,3.01-5.77,6.5-3.62,10.57-5.54,2.81-1.32,3.95-5.7,8.79-6.26,3.12-.36,5.37,1.14,7.95,1.14,4.37,0,8.44-2.84,13.81-2.36,3.83.34,6.69,3.97,8.97,3.38,1.75-.45,13.79-9.9,18.05-11.97,18.85-9.17,33.15-8.07,51.45,1.56,3.19,1.68,14.11,10.14,15,10.36,1.31.32,8.97-1.15,12.43-.95,10.32.59,23.74,5.3,31.68,12.03,3.71,3.14,6.52,4.88,4.59,9.78-5.01,12.72-17.36,25.18-25.29,36.22,1.91,12.93-.11,35.67,5.95,46.92.8,1.48,2.58,1.72,3.24,2.77,3.35,5.28,1.68,8.77,2.28,14.08.52,4.65,3.99,6.35,4.37,11.26.26,3.43-1.3,6.4-.99,10,.23,2.67,2.07,4.61,2.06,6.67,0,3.97-3.71,9.07-4.07,11.97-.29,2.37,1.27,3.97.45,7.22-.97,3.85-5.12,6.23-5.89,8.06-.72,1.73.99,3.6-.21,6.54-1.07,2.62-4.55,4.45-6.13,6.61-3.84,5.28-7.24,10.76-11.99,15.62-6.66,6.81-38.62,19.81-48.68,21.51-5.78.97-12.37-1.05-17.57,2.57h-17.27c-1.32-1.51-3.38-1.96-5.29-2.19-19.92-2.44-26.97-5.79-44.29-15.54-43.83-24.68-71.85-62.66-81.37-114.14-1.12-6.05-.67-12.93-2.59-18.68.39-6.75-.53-14.01,0-20.69,1.02-12.76,6.86-39.78,11.51-51.72,1.38-3.54,7.59-15.12,9.91-19.41.99-1.84,7.11-12.94,9.65-10.46.66.65-7.11,14.53-8.07,16.65-22.06,48.76-18.75,103.83,7.46,150.03,9.13,16.09,21.39,29.23,35.22,40.73,16.1,13.37,24.38,18.75,44.9,25.25,2.22.7,3.56,3.34,5.35,3.85,4.47,1.29,20.96,2.44,26.3,2.59,17.55.48,34.57-4.34,50.29-11.85,13.82-6.6,21.62-14.67,28.16-28.16,1.43-2.95,6.24-13.99,7.07-17.16.19-.72.23-13.14.14-14.65-.16-2.63-2.65-4.75-3.16-7.21-1-4.84.77-9.37-2.58-14.11-1.8-1.25-12.16,10.8-14.39,12.61-7.92,6.44-19.7,13.16-29.33,16.12l-.05-31.41c15.63-7.93,30.48-24.68,32.27-42.73.37-3.73.59-19.79-.59-22.38-3.64-7.99-31.16-20.79-39.08-27.64-3.15-2.72-6.97-6.01-7.53-10.31-3.19-.83-2.36,2.42-4.05,4.53-8.26,10.29-22.65,15.28-33.13,23.26-3.19,2.43-5.17,2.9-6.55,6.68,9.9-5.34,18.21-5.81,28.77-1.72,1.11.43,8.22,4.15,8.06,4.58-.94,2.59-2.39,1.04-3.77.34-12.03-6.09-21.09-6.84-32.46,1.4-2.26-1.45-1.32-2.62-.6-4.6-2.47,1.34-4.98,1.26-5.73,5.2-.9,4.79-.31,18.45.49,23.59,2.83,18.16,17.09,31.23,31.53,40.93-.26,10.3,1.03,21.19.19,31.42Z"/>
  <path class="cls-1" d="M294.49,264.64c28.85-42,35.42-91.24,22.93-140.7C297.29,44.2,211.54-1.56,132.38,16.02c-3.3.73-18.3,6.46-19.77,4.96-.12-.12-.17-2.74.17-3.28,2.41-3.88,40.03-11.29,46.41-11.7,134.02-8.57,215.84,128.61,152.78,244.47-5.61,10.32-26.34,40.87-37.67,42.85-1.67.29-3.3.71-2.81-1.66,2.27-1.77,3.89-4.39,5.75-6.34.37-.39.79-.74,1.15-1.15,3.1-3.48,4.15-3.06,6.91-8.05,5.56-3.02,6.29-7.25,9.21-11.49Z"/>
  <path class="cls-2" d="M261.11,120.98c4.01,4.4,6.83,10.62,8.38,16.34,1.77,6.53.96,14.56,2.49,19.35,1.87,5.86,15.22,17.51,14.52,25.77-.35,4.13-5.65,3.24-8.08,4.66s-2.57,7.04-5.81,9.18c3.79.33,1.61,6.72.58,9.74-4.01,11.71-14.03,16.11-25.89,14.95-.6-5.31,1.07-8.8-2.28-14.08-.66-1.04-2.45-1.29-3.24-2.77-6.06-11.25-4.05-33.99-5.95-46.92,7.93-11.05,20.29-23.51,25.29-36.22ZM269.16,146.28c-4.23-4.16-22.62-.13-21.86,1.7.98,2.37,2.69,1.24,4.3.93,3.9-.75,5.51-1.64,10.12-1.56.9.01,11.11,2.55,7.44-1.07ZM257.65,154.31c-.94.38-5.61-.83-2.9,2.33,1.03,1.21,8.11,4.57,9.81,4.57,6.22,0,1.55-6.94,3.45-10.33-4.09-.78-7.1,2.13-10.36,3.44Z"/>
  <path class="cls-2" d="M70.01,157.76c1.73-5.08,2.07-5.56,8.68-5.75,6.1-.17,6.82,1.76,12.04,3.44-3.65-6.88-11.66-5.8-18.41-5.74-1.09-.96,7.4-25.13,13.8-24.13-1.1,3.18,2.12,3.47,2.67,4.85,4.11,10.44,6.28,12.95,12.01,21.88.26.4,3.44,8.16,3.56,8.62.78,3.12-1.93,17.08-2.09,21.55-.44,12.17,1.05,24.3,3.44,36.19-11.11,3.33-25.41,3.82-32.06-7.64-3.14-5.41-2.14-8.74-2.68-13.65-.07-.68-1.82-.39-2.05-1.33-.56-2.25.39-5.32-1.09-7.65s-8.91-1.83-9.38-3.78c-1.01-4.21,5.42-10.82,7.58-15.33,1.82-3.78,2.67-7.62,4-11.52ZM79.22,156.61c-.11-.08.5-1.98-.75-2.32-6.16-1.66-4.68,7.13-3.85,11.51,1.42.49,2.09-1.09,2.29-1.14,9.93-2.69,9.73-2.94,2.3-8.05Z"/>
  <path class="cls-1" d="M364.71,151.44c.71-2.35,5.03-2.66,6.71.19,2.24,3.8,5.04,29.77,6.54,30.27,2.59.54,1.63-1.96,2.05-3.65,1.44-5.85,3.41-22.86,5.62-26.62,2.01-3.42,6.71-1.73,6.71-.19v52.87c0,.72-1.92,1.77-2.88,1.77-6.89,0-2.63-16.15-4.6-16.15-1.89,21.47-11.1,21.51-12.1.02l-1.72,13.78c-1.55,3.21-6.32,2.52-6.32.58v-52.87Z"/>
  <path class="cls-1" d="M553.12,149.9c1.84-.61,10.17-.5,12.5-.22,10.88,1.33,15.07,11.57,12.25,21.48-.66,2.33-3.28,5.65-3.28,6.7,0,1.2,3.87,6.42,4.16,10.51.6,8.51-3.51,15.89-12.28,17.37-5.08.85-14.83,2.13-16.16-4-1.44-6.65-1.15-38.18-.28-45.74.25-2.13.79-5.34,3.09-6.11ZM558.11,156.61v17.24c9.23.36,13.41.68,12.76-9.81-.48-7.74-6.13-7.71-12.76-7.43ZM558.11,199.13c17.77,3.33,17.91-21.38,0-18.39v18.39Z"/>
  <path class="cls-1" d="M419.97,96.27c.62-2.05,4.93-2.55,6.34-.58l8.62,18.39v-17.81c0-2.28,6.91-2.28,6.91,0v37.93c0,1.5-5.2,2.47-6.73,1.53l-8.23-19.34v17.81c0,1.76-5.26,2.03-6.91,1.72v-39.65Z"/>
  <path class="cls-1" d="M484.72,197.69c-1.03-1.21-.5-5.09-2.2-5.5-6.7-1.63-4.16,1.7-5.58,4.6-1.73,3.52-6.18,2.81-7.23-.76-.81-2.73-.57-35.27.33-37.12,2.41-4.95,19.17-3.04,21.06,5.42.9,4.04.53,13.64.28,18.18-.15,2.71-2.16,4.75-2.07,6.66.12,2.32,2.85,5.13,1.93,8.08-.84,2.68-5.18,2.03-6.52.45ZM476.38,163.51v20.11c0,1.95,7.23,4.43,8.13-4.53.71-7.1,1.66-17.54-8.13-15.58Z"/>
  <path class="cls-1" d="M391.19,87.65c.9.6.71,5.56,0,6.9h-19.57v17.24h17.84c2.27,0,4.2,6.9,1.15,6.9h-18.99v22.41c0,1.76-5.26,2.03-6.91,1.72v-53.44c0-.12,1.6-1.72,1.73-1.72,3.6,0,23.72-.69,24.75,0Z"/>
  <path class="cls-1" d="M519.76,133.27c-3.28,3.5-17.22,6.1-19.02.74-.84-2.51-.74-31.42-.25-35.49.69-5.67,9.47-4.78,14.2-3.72,2.42.54,5.93,3.52,6.85,5.8,1.92,4.76,1.83,28.8-1.79,32.68ZM507.46,129.03c2.48-.14,6.95.99,7.9-1.88.7-2.12.52-16.37.23-19.44-.57-5.89-2.11-6.65-8.12-6.25v27.58Z"/>
  <path class="cls-1" d="M445.3,94.55c9.19.03,19.67-2.37,20.8,9.7.46,4.92.57,24.09-1.36,27.52-2.94,5.22-14.11,6.34-19.44,4.16v-41.37ZM452.2,101.44v27.58c2.24-.04,5.87.78,6.75-1.88.73-2.2.5-23.96-.51-24.68-.87-.62-5.83-1.43-6.23-1.02Z"/>
  <path class="cls-1" d="M590.06,156.83c4.45-.77,10.32,1.49,12.07,5.83,1.35,3.36,1.56,24.9.59,28.72-2.78,10.97-20.08,9.78-21.61-3.14-1.06-8.92-2.4-29.45,8.96-31.42ZM596.1,189.37c.97-3.07,0-18.27,0-22.99,0-3.34-8.06-3.34-8.06,0v21.84c0,4.09,7.27,3.67,8.06,1.15Z"/>
  <path class="cls-1" d="M477.2,94.79c4.68-1.05,9.78.17,12.33,4.45,2.38,4.01,2.67,24.14,1.57,28.98-2.14,9.45-16.04,10.83-20.33,2.39-1.84-3.61-2.05-23.93-1.06-28.34.69-3.06,4.44-6.79,7.49-7.47ZM484.44,126.15c.94-5.51,0-15.66,0-21.84,0-3.34-8.06-3.34-8.06,0v21.84c0,3.71,7.26,4.72,8.06,0Z"/>
  <path class="cls-1" d="M402.38,94.79c4.76-1.06,9.67.19,12.37,4.4,2.36,3.68,2.61,24.33,1.72,29.2-1.97,10.8-19.85,10.8-21.71-2.35-1.11-7.84-2.19-29.06,7.63-31.26ZM409.61,127.3c1.02-3.34,0-19.12,0-24.14,0-1.77-5.29-3.27-7.2.85-1.24,2.68-1.46,19.05-.62,21.9,1.08,3.66,6.95,4.24,7.82,1.38Z"/>
  <path class="cls-1" d="M402.7,188.22c.8,4.72,8.06,3.71,8.06,0v-29.88c0-2.22,5.89-2.9,6.87,2.33.76,4.04.47,28.04-.84,31.28-2.66,6.6-11.99,9.1-17.51,4.28-.64-.56-3.49-5.38-3.49-5.71v-32.18c0-2.28,6.91-2.28,6.91,0,0,8.3-1.26,22.49,0,29.88Z"/>
  <path class="cls-1" d="M690.73,197.73c-1.17-1.79,1.19-4.47-3.11-5.5-5.72-1.37-3.2,1.7-4.61,4.55-1.75,3.54-6.55,2.62-7.19-.66-.36-1.81,6.06-33.02,7.19-36.09,1.37-3.71,5.24-5.38,7.26-1.47,1.09,2.11,7.05,32.11,7.18,35.46.22,5.94-4.94,6.42-6.71,3.71Z"/>
  <path class="cls-1" d="M527.03,164.66c-1.79,9.23,12.57,13.2,13.77,21.35,2.36,16.08-20.93,17.42-21.75,1.2,7.66-7.07,7.4,3.6,8.65,3.95,2.16.6,6.32-.04,6.28-2.95-.05-4.16-16.52-12.66-14.57-22.44.86-4.31,5.98-9.16,10.47-9.2,10.86-.09,14.87,14.75,6.93,13.91-3.65-.39-2.48-8.31-9.78-5.82Z"/>
  <path class="cls-1" d="M544.87,94.55c.4.11,2.67,2.48,2.77,3.04,1.08,5.96-14.14,3.12-14.87,3.85.28,1.8-.39,10,0,10.36.81.75,7-2.39,6.89,4.08-.07,4.32-6.27,2.23-6.88,2.8-.4.37.29,8.54,0,10.35,3,.53,10.63-1.01,12.74.49,1.28.91,1.63,5.11.92,6.25-1.31,2.1-17.3,1.64-20.56.15v-39.65c0-.12,1.6-1.72,1.73-1.72,3.99,0,14.4-.81,17.27,0Z"/>
  <path class="cls-1" d="M513.79,156.61c1.77.49,4.31,4.65,1.76,6.35-2.47,1.64-10.51-.05-13.85.54.34,1.9-.51,9.75.06,10.3.42.4,6.88-.53,6.88,4.07.16,4.47-6.42,3.63-6.88,4.07-.57.54.28,8.4-.06,10.3,3.51.65,16.43-2.4,14.82,3.84-1.33,5.17-17.41,3.05-21.72,1.9v-39.65c0-.12,1.6-1.72,1.73-1.72,4.02,0,14.36-.81,17.27,0Z"/>
  <path class="cls-1" d="M651.37,176.14l5.13-18.41c2.17-2.21,6.19-1.56,6.39,1.74-3.63,10.35-3.4,26.91-7.23,36.49-1.33,3.33-4.37,4.44-6.68,1.51-1.17-1.48-8.02-33.69-8.03-36.9-.02-4.22,3.77-5.53,6.41-2.84,2.33,2.37,3.15,14.58,4.01,18.41Z"/>
  <path class="cls-1" d="M464.29,156.61c1.77.49,4.31,4.65,1.76,6.35s-10.51-.05-13.85.54c.34,1.9-.51,9.75.06,10.3.39.37,6.92-.47,6.9,4.07-.01,3.76-5.2,2.22-6.46,3.95-1.38,1.88-.08,7.82-.5,10.43,3.51.65,16.43-2.4,14.82,3.84-1.33,5.17-17.41,3.05-21.72,1.9v-39.65c0-.12,1.6-1.72,1.73-1.72,4.02,0,14.36-.81,17.27,0Z"/>
  <path class="cls-1" d="M434.94,163.51c-.65-.64-8.01,1.51-9.11-1.84-2.55-7.75,14.52-5.41,15.52-3.98.88,1.26.88,27,.56,30.58-1.46,16.07-23.33,12.92-20.78-2.93,7.36-2.48,5.62,4.57,8.81,5.62,1.57.52,5.01-.18,5.01-1.59,0-3.62.92-24.95,0-25.86Z"/>
  <path class="cls-1" d="M613.37,191.09c2.54.06,12.54-.49,13.66,1.3.9,1.45-.06,6.75-1.57,6.75h-17.27c-.12,0-1.73-1.6-1.73-1.72v-39.08c0-2.28,6.91-2.28,6.91,0v32.75Z"/>
  <path class="cls-1" d="M267.07,295.51c.27.47,2.24.6,2.71,1.27,1.83,2.61-6.26,13.23-9.4,14.84-5.8,2.97-17.51,1.51-14.91-6.8,3.13-10,14.56-2.29,20.22-8.58-20.5,4.12-17.96-13.75.36-4.92,3.29,1.59.63,3.52,1.02,4.2Z"/>
  <path class="cls-1" d="M60.7,64.77c2.8,7.17-12.57,10.84-16.05,8.5-.83-.56-.89-2.45-1.24-2.7-.46-.32-2.78,1.73-4.53.5-.79-.56-2.34-10.92-2.34-12.72,0-4.98,3.03-12.89,8.82-13.23,8.79-.5,1.35,19.29-.11,24.12,4.09-3.48,10.16-7.04,15.45-4.47Z"/>
  <path class="cls-1" d="M665.17,159.48c.93-3.3,8.06-4.44,8.06,0v36.78c0,3.34-8.06,3.34-8.06,0v-36.78Z"/>
  <path class="cls-1" d="M630.64,158.33c.84-2.79,6.91-1.87,6.91,0v39.08c0,3.04-6.91,1.11-6.91-1.15v-37.93Z"/>
  <path class="cls-1" d="M571.59,224.66c18.82-4.34,22.35,22.9,5.21,24.83-16.04,1.8-18.72-21.72-5.21-24.83ZM572.76,228.09c-11.14,2.43-6.53,19.39,3.83,17.68,11.85-1.95,9.75-20.64-3.83-17.68Z"/>
  <path class="cls-1" d="M664.02,224.42v3.44s-13.82,0-13.82,0v6.24s11.51.67,11.51.67c.67,5.92-10.52,2.43-11.51,3.44v6.91s13.83,0,13.83,0v3.44h-17.27v-24.14h17.27Z"/>
  <path class="cls-1" d="M439.54,226.14c.28-.96,2.21-2.1,3.45-1.72.32,2.5-.96,8.41,1.08,9.84.98.68,12.29.96,12.74.51s-.33-8.52,0-10.36h3.45v24.14h-3.45s-.67-10.36-.67-10.36c-2.11.39-12.67-.47-13.16.01-.44.44.33,8.52,0,10.36h-3.45c1.08-5.91-1.46-17.33,0-22.42Z"/>
  <path class="cls-1" d="M622.58,224.42v16.66c0,6.47,12.66,5.38,12.66,1.15v-17.81h3.45v18.96c0,2.59-6.76,6.36-9.67,6.28-3.17-.09-9.9-4.48-9.9-7.43v-17.81h3.45Z"/>
  <path class="cls-1" d="M385.43,248.55c-5.16,1.52-2.44-3.44-5.31-4.45-1.17-.41-9.95-.42-10.64.02-1.32.84.17,6.07-4.76,4.44.35-3.3,8.53-23.82,9.8-24.12,1.73-.41,2.45,1.48,3.1,2.63,1.32,2.33,8.73,20.62,7.81,21.49ZM376.21,231.32c-2.06-1.92-1.93.77-2.38,1.63-.61,1.16-2.83,6.95-2.2,7.55h8.05c-1.19-1.51-2.82-8.58-3.47-9.18Z"/>
  <path class="cls-1" d="M594.95,224.42c6.39-.45,16.69-1.15,17.26,7.55.65,10-13.06,7.82-13.81,8.53-.39.37.29,6.49,0,8.06h-3.45v-24.14ZM607.31,235.62c5.49-4.68-3.51-9.93-8.91-7.76l1.08,8.72c1.36.98,6.75-.04,7.83-.96Z"/>
  <path class="cls-1" d="M392.34,226.14c1.35-4.36,21.48-2.15,16.41,9.47-2.77,6.35-12.35,4.31-12.96,4.89-.39.37.29,6.49,0,8.06h-3.45c1.09-5.73-1.49-17.61,0-22.42ZM404.7,235.62c5.49-4.68-3.51-9.93-8.91-7.76l1.08,8.72c1.36.98,6.75-.04,7.83-.96Z"/>
  <path class="cls-1" d="M487.88,248.55c-3.28.61-3.07-3.64-5.36-4.41-1.32-.44-9.84-.51-10.59-.03-1.32.84.18,6.07-4.76,4.43,1.16-3.14,8.18-23.36,9.22-24.12,1.95-1.44,3.85,3.06,4.44,4.16,1.4,2.57,8.2,18.58,7.05,19.96ZM482.13,240.5l-4.02-10.33-4.03,10.33h8.05Z"/>
  <path class="cls-1" d="M495.95,224.42c6.15-.93,16.65.24,16.1,8.54-.61,9.24-11.88,5.61-12.66,6.4s2.04,9.94-3.45,9.2v-24.14ZM498.25,227.86c-3.44,16.8,16.48,7.05,8.74,1.05-2.33-1.81-6-.9-8.74-1.05Z"/>
  <path class="cls-1" d="M278.38,93.41c2.28-.31,2.97,1.83,5.2,2.27,3.3.64,16.81-1.65,12.69,6.91-4.08,8.48-19.65-.79-17.9-9.17Z"/>
  <path class="cls-1" d="M432.06,224.42c1.02.3,2.1,2.27,1.72,3.44-1.06.3-8.05-.4-8.05,0v20.69h-3.45v-20.69c0-.35-6.54.38-6.91,0v-3.44c4.46.81,12.91-1.12,16.7,0Z"/>
  <path class="cls-1" d="M687.04,224.42v3.44c-.37.39-6.91-.34-6.91,0v20.69h-3.45v-20.69c0-.35-6.54.38-6.91,0v-3.44h17.27Z"/>
  <path class="cls-1" d="M31.75,63.8c6.73,6.74-4.13,26.97-6.55,11.72-.78-4.91-.31-18.6,6.55-11.72Z"/>
  <path class="cls-1" d="M555.81,224.42v25.86c0,3.73-8.5,6.73-10.29,3.93-3.18-4.98,6.84-2.41,6.84-5.08v-24.71h3.45Z"/>
  <path class="cls-1" d="M277.22,285.33c-4.21,1.63-15.35,5.03-15.93-1.98-.66-8.07,9.8-3.69,14.27-2.64,2.87.68,3.21-1.22,2.81,3.46-.37.41-.78.76-1.15,1.15Z"/>
  <path class="cls-1" d="M23.86,93.29c-6.39,4.3-11.54-13.69-4.94-14.77,4.69-.77,8.46,12.4,4.94,14.77Z"/>
  <path class="cls-1" d="M19.36,106.04c-7.51,5.84-13.94-7.91-8.06-10.97,4.79-2.49,8.61,7.11,8.06,10.97Z"/>
  <path class="cls-1" d="M36.63,91.1c-3.22-3.26,6.25-14.04,11.01-9.26,4.7,6.8-8.82,11.48-11.01,9.26Z"/>
  <path class="cls-1" d="M29.73,103.74c-.45-5.51,5.27-10.59,10.67-8.99,8.97,2.65-4.91,12-10.67,8.99Z"/>
  <path class="cls-1" d="M285.28,276.14c-4.48,2.44-14.56,3.33-12.48-3.79,1.87-6.43,10.3.51,14.78-.8.36,2.06-1.4,2.97-2.3,4.59Z"/>
  <rect class="cls-1" x="518.97" y="224.42" width="3.45" height="24.14"/>
  <rect class="cls-1" x="693.95" y="224.42" width="3.45" height="24.14"/>
  <path class="cls-1" d="M294.49,264.64c-1.4,2.08-15.28,4.68-13.8-2.83,1.19-3.95,10.88.42,13.81-.61-.18.96.26,3.04,0,3.44Z"/>
  <path class="cls-1" d="M272.63,76.17c4.67.81,8.02-4.29,12.15-1.23,6.72,4.97-10.28,11.22-12.15,1.23Z"/>
  <path class="cls-1" d="M281.06,88.43c-1.02-1.13-1.72-2.65-1.53-4.22,3.27,2.03,12.86-2.24,13.74,3.01.77,4.63-8.72,5.09-12.21,1.22Z"/>
  <path class="cls-1" d="M212.4,152.34c1.39,1.5,1.85,3.02-.24,4.27-3.06.62-5.16-3.45-7.81-4.83-5.97-3.11-22.72-3.53-27.27,1.96-3.53,4.26.77,25.64-1.32,32.01-1.05,3.19-7.39,1.56-10.2,1.87.49-3.38,6.4-1.82,6.91-2.29,1.07-1-.82-24.75.03-29.28,2.14-11.41,32.11-12.12,39.91-3.73Z"/>
  <path class="cls-1" d="M158.65,164.66c.9-2.28-5.49-5.98-6.9-4.6-.27.26.4,5.97-2.31,6.9-1.69.2-3.05,1.45-5.76,1.15-.59-1.58-2.93-2.81-3.29-4.26-.96-3.85,4.6-8.93-7.07-1.49-.38-.31-2.37.64-2.3-.57,6.63-8.15,18.64-7.36,26.38-1.07,1.05.86,4.02,2.83,1.24,3.93Z"/>
  <path class="cls-1" d="M186.28,160.06c.17-.13-.77-1.6,1.56-2.51,5.93-2.29,18.37-1.92,21.46,4.79-.68.18-2.02-.21-2.3.01-11.67-7.44-6.11-2.36-7.07,1.49-.36,1.44-2.7,2.68-3.29,4.26-3.2.32-4.39-.62-6.91-1.15-1.4-2.78.21-7.88-3.45-6.9Z"/>
  <path class="cls-1" d="M165.17,194.72c1.87-.58,13.08-.77,13.03,1.54-.08,3.6-12.61,6.12-14.94,1.13-.29-1.27.78-2.32,1.91-2.67Z"/>
  <path class="cls-1" d="M269.16,146.28c3.67,3.62-6.54,1.08-7.44,1.07-4.62-.07-6.22.81-10.12,1.56-1.61.31-3.32,1.44-4.3-.93-.76-1.83,17.64-5.87,21.86-1.7Z"/>
  <path class="cls-1" d="M257.65,154.31c3.26-1.31,6.28-4.22,10.36-3.44-1.9,3.4,2.76,10.33-3.45,10.33v-8.04s-6.91,1.14-6.91,1.14Z"/>
  <path class="cls-1" d="M76.92,164.66c-.2.05-.87,1.64-2.29,1.14-.83-4.38-2.31-13.17,3.85-11.51,1.24.34.64,2.24.75,2.32l-2.3,8.05Z"/>
</svg>